<svg width="39" height="44" viewBox="0 0 39 44" fill="none" xmlns="http://www.w3.org/2000/svg">
<path d="M19.069 30.2355L38.1048 19.2456L19.0531 8.24561L0.017334 19.2355L19.069 30.2355Z" fill="#A4C200"/>
<path d="M19.069 38.4855L38.1048 27.4956L19.0531 16.4956L0.017334 27.4855L19.069 38.4855Z" fill="#A4C200"/>
<path d="M38.1049 32.9999V27.4956L19.0691 38.4855L19.0532 38.4753V43.9999L38.1049 32.9999Z" fill="#B5D601"/>
<path d="M19.0691 35.7355L38.1049 24.7456V19.2456L19.0691 30.2355L19.0532 30.2253V35.7253L19.0691 35.7355Z" fill="#B5D601"/>
<path d="M19.0691 27.4855L38.1049 16.4957V11L19.0691 21.9899L19.0532 21.9797V27.4754L19.0691 27.4855Z" fill="#B5D601"/>
<path d="M0 32.9999L19.0532 43.9999V38.4753L0 27.4753V32.9999Z" fill="#C9EB01"/>
<path d="M0 24.7253L19.0532 35.7253V30.2253L0 19.2253V24.7253Z" fill="#C9EB01"/>
<path d="M0 10.9999V16.4753L19.0532 27.4753V21.9796L0.0173684 10.9897L0 10.9999Z" fill="#C9EB01"/>
<path d="M19.069 21.9899L38.1048 11L19.0531 0L0.017334 10.9899L19.069 21.9899Z" fill="#D8FF00"/>
<path d="M14.0481 10.7553C14.051 11.2908 14.8037 11.7265 15.73 11.7265C16.6563 11.7265 17.4031 11.2923 17.4002 10.7553C17.3973 10.2183 16.6462 9.78412 15.7184 9.78412C14.7935 9.78412 14.0452 10.2183 14.0481 10.7553Z" fill="#2D00F7"/>
<path d="M20.6814 10.7553C20.6843 11.2908 21.4384 11.7265 22.3633 11.7265C23.2881 11.7265 24.0364 11.2923 24.0335 10.7553C24.0306 10.2183 23.278 9.78412 22.3517 9.78412C21.4268 9.78412 20.6785 10.2183 20.6814 10.7553Z" fill="#2D00F7"/>
<path d="M28.4784 13.3895L27.6187 11.8365L24.9888 12.3199C24.6009 12.3908 24.3867 12.6311 24.5112 12.8569C24.611 13.0393 24.9034 13.155 25.216 13.155C25.2898 13.155 25.3651 13.1493 25.4389 13.1348L25.7313 13.0812C25.1755 13.6269 24.4229 14.0987 23.5313 14.462C22.2764 14.9729 20.7538 15.2725 19.0994 15.2725C17.4364 15.2725 15.9008 14.97 14.6372 14.4533C13.3751 13.9366 12.3894 13.2071 11.8394 12.3546C11.728 12.1824 11.4458 12.0753 11.1462 12.0753C11.0608 12.0753 10.9739 12.084 10.89 12.1014C10.5079 12.1824 10.3154 12.4299 10.4572 12.6514C11.1129 13.6674 12.2852 14.5344 13.7876 15.1495C15.2885 15.7646 17.1281 16.1265 19.1023 16.1265C21.065 16.1265 22.8901 15.769 24.3823 15.1596C25.4433 14.7269 26.3363 14.1668 26.9992 13.5183L27.0701 13.6457C27.17 13.8266 27.4623 13.9439 27.7764 13.9439C27.8502 13.9439 27.9255 13.9381 27.9993 13.9236C28.3872 13.8512 28.6 13.6124 28.4769 13.3866L28.4784 13.3895Z" fill="#2D00F7"/>
<path d="M13.1088 9.23412C13.4967 9.1632 13.7138 8.92294 13.5893 8.6986C13.4894 8.51623 13.1971 8.39899 12.883 8.39899C12.8106 8.39899 12.7354 8.40478 12.663 8.41781L12.4937 8.4482C13.0552 7.92136 13.8021 7.46544 14.6806 7.11518C15.9225 6.61873 17.4234 6.32781 19.0517 6.32781C20.6525 6.32781 22.1375 6.61004 23.3721 7.09202C24.6067 7.57399 25.5923 8.2586 26.1814 9.06044C26.3016 9.22399 26.5751 9.32096 26.8631 9.32096C26.9587 9.32096 27.0571 9.30939 27.1512 9.28623C27.526 9.19504 27.6983 8.9432 27.5405 8.7261C26.8356 7.76939 25.6647 6.95741 24.1956 6.38281C22.7237 5.8082 20.9492 5.47241 19.0473 5.47241C17.1137 5.47241 15.3175 5.81978 13.8412 6.41031C12.7426 6.84886 11.8177 7.42346 11.1389 8.09215L11.0347 7.90254C10.9348 7.71873 10.6439 7.60294 10.3298 7.60294C10.256 7.60294 10.1808 7.60873 10.1069 7.6232C9.71905 7.69412 9.50484 7.93439 9.62787 8.15873L10.4789 9.71175L13.1102 9.23268L13.1088 9.23412Z" fill="#2D00F7"/>
</svg>
